<svg xmlns="http://www.w3.org/2000/svg" viewBox="0 0 512 512"><defs><linearGradient id="g" x1="0" y1="0" x2="1" y2="1"><stop stop-color="#ff5a3d"/><stop offset="1" stop-color="#c91535"/></linearGradient></defs><rect width="512" height="512" rx="116" fill="#101512"/><path d="M120 224c0-90 272-90 272 0 0 35-28 58-64 58H184c-36 0-64-23-64-58Z" fill="url(#g)"/><path d="M215 276c-7 72-29 98-44 126h170c-15-28-37-54-44-126Z" fill="#f4ddbd"/><path d="M256 132c-49 0-87 18-110 43 30-11 65-17 110-17s80 6 110 17c-23-25-61-43-110-43Z" fill="#ff8066" opacity=".7"/></svg>